<mxfile host="app.diagrams.net" modified="2021-07-09T09:51:04.191Z" agent="5.0 (Windows NT 10.0; Win64; x64) AppleWebKit/537.36 (KHTML, like Gecko) Chrome/91.0.4472.124 Safari/537.36 Edg/91.0.864.64" etag="p04FXxiv_J1nF7aTTQt-" version="14.8.5" type="github">
  <diagram id="A8t9eihyOCjCsNWFdTKN" name="第 1 页">
    <mxGraphModel dx="1038" dy="547" grid="1" gridSize="10" guides="1" tooltips="1" connect="1" arrows="1" fold="1" page="1" pageScale="1" pageWidth="827" pageHeight="1169" math="0" shadow="0">
      <root>
        <mxCell id="0" />
        <mxCell id="1" parent="0" />
        <mxCell id="5DO17vhvd1ubh10Ip06L-5" style="edgeStyle=orthogonalEdgeStyle;rounded=0;orthogonalLoop=1;jettySize=auto;html=1;exitX=0.5;exitY=1;exitDx=0;exitDy=0;entryX=0.5;entryY=0;entryDx=0;entryDy=0;" edge="1" parent="1" source="5DO17vhvd1ubh10Ip06L-1" target="5DO17vhvd1ubh10Ip06L-4">
          <mxGeometry relative="1" as="geometry" />
        </mxCell>
        <mxCell id="5DO17vhvd1ubh10Ip06L-6" value="统一数据队列传输数据" style="edgeLabel;html=1;align=center;verticalAlign=middle;resizable=0;points=[];" vertex="1" connectable="0" parent="5DO17vhvd1ubh10Ip06L-5">
          <mxGeometry x="0.3227" y="1" relative="1" as="geometry">
            <mxPoint x="-1" y="-29" as="offset" />
          </mxGeometry>
        </mxCell>
        <mxCell id="5DO17vhvd1ubh10Ip06L-1" value="启动所有端口数据接受以及雷达数据接受" style="rounded=0;whiteSpace=wrap;html=1;" vertex="1" parent="1">
          <mxGeometry x="354" y="150" width="120" height="60" as="geometry" />
        </mxCell>
        <mxCell id="5DO17vhvd1ubh10Ip06L-3" style="edgeStyle=orthogonalEdgeStyle;rounded=0;orthogonalLoop=1;jettySize=auto;html=1;exitX=0.5;exitY=1;exitDx=0;exitDy=0;entryX=0.5;entryY=0;entryDx=0;entryDy=0;" edge="1" parent="1" source="5DO17vhvd1ubh10Ip06L-2" target="5DO17vhvd1ubh10Ip06L-1">
          <mxGeometry relative="1" as="geometry" />
        </mxCell>
        <mxCell id="5DO17vhvd1ubh10Ip06L-2" value="开始程序" style="ellipse;whiteSpace=wrap;html=1;" vertex="1" parent="1">
          <mxGeometry x="354" y="20" width="120" height="80" as="geometry" />
        </mxCell>
        <mxCell id="5DO17vhvd1ubh10Ip06L-13" style="edgeStyle=orthogonalEdgeStyle;rounded=0;orthogonalLoop=1;jettySize=auto;html=1;exitX=0.25;exitY=0;exitDx=0;exitDy=0;entryX=0;entryY=0.5;entryDx=0;entryDy=0;" edge="1" parent="1" source="5DO17vhvd1ubh10Ip06L-7" target="5DO17vhvd1ubh10Ip06L-1">
          <mxGeometry relative="1" as="geometry">
            <Array as="points">
              <mxPoint x="329" y="180" />
            </Array>
          </mxGeometry>
        </mxCell>
        <mxCell id="5DO17vhvd1ubh10Ip06L-14" value="提供统一环境变量" style="edgeLabel;html=1;align=center;verticalAlign=middle;resizable=0;points=[];" vertex="1" connectable="0" parent="5DO17vhvd1ubh10Ip06L-13">
          <mxGeometry x="-0.5123" y="2" relative="1" as="geometry">
            <mxPoint y="-42" as="offset" />
          </mxGeometry>
        </mxCell>
        <mxCell id="5DO17vhvd1ubh10Ip06L-7" value="中间件" style="swimlane;" vertex="1" parent="1">
          <mxGeometry x="244" y="300" width="340" height="240" as="geometry">
            <mxRectangle x="250" y="360" width="70" height="23" as="alternateBounds" />
          </mxGeometry>
        </mxCell>
        <mxCell id="5DO17vhvd1ubh10Ip06L-10" style="edgeStyle=orthogonalEdgeStyle;rounded=0;orthogonalLoop=1;jettySize=auto;html=1;exitX=0.25;exitY=1;exitDx=0;exitDy=0;entryX=0.5;entryY=0;entryDx=0;entryDy=0;" edge="1" parent="5DO17vhvd1ubh10Ip06L-7" source="5DO17vhvd1ubh10Ip06L-4" target="5DO17vhvd1ubh10Ip06L-9">
          <mxGeometry relative="1" as="geometry" />
        </mxCell>
        <mxCell id="5DO17vhvd1ubh10Ip06L-16" style="edgeStyle=orthogonalEdgeStyle;rounded=0;orthogonalLoop=1;jettySize=auto;html=1;exitX=0.75;exitY=1;exitDx=0;exitDy=0;" edge="1" parent="5DO17vhvd1ubh10Ip06L-7" source="5DO17vhvd1ubh10Ip06L-4" target="5DO17vhvd1ubh10Ip06L-15">
          <mxGeometry relative="1" as="geometry" />
        </mxCell>
        <mxCell id="5DO17vhvd1ubh10Ip06L-4" value="分类函数读取" style="rounded=0;whiteSpace=wrap;html=1;" vertex="1" parent="5DO17vhvd1ubh10Ip06L-7">
          <mxGeometry y="40" width="340" height="30" as="geometry" />
        </mxCell>
        <mxCell id="5DO17vhvd1ubh10Ip06L-18" style="edgeStyle=orthogonalEdgeStyle;rounded=0;orthogonalLoop=1;jettySize=auto;html=1;exitX=0.5;exitY=1;exitDx=0;exitDy=0;curved=1;" edge="1" parent="5DO17vhvd1ubh10Ip06L-7" source="5DO17vhvd1ubh10Ip06L-9" target="5DO17vhvd1ubh10Ip06L-17">
          <mxGeometry relative="1" as="geometry" />
        </mxCell>
        <mxCell id="5DO17vhvd1ubh10Ip06L-9" value="数据处理函数" style="rounded=0;whiteSpace=wrap;html=1;" vertex="1" parent="5DO17vhvd1ubh10Ip06L-7">
          <mxGeometry y="110" width="170" height="30" as="geometry" />
        </mxCell>
        <mxCell id="5DO17vhvd1ubh10Ip06L-15" value="状态检查函数" style="rounded=0;whiteSpace=wrap;html=1;" vertex="1" parent="5DO17vhvd1ubh10Ip06L-7">
          <mxGeometry x="170" y="110" width="170" height="30" as="geometry" />
        </mxCell>
        <mxCell id="5DO17vhvd1ubh10Ip06L-17" value="各数据队列" style="rounded=0;whiteSpace=wrap;html=1;" vertex="1" parent="5DO17vhvd1ubh10Ip06L-7">
          <mxGeometry y="180" width="340" height="30" as="geometry" />
        </mxCell>
        <mxCell id="5DO17vhvd1ubh10Ip06L-19" value="后续的不知道啥流程" style="rounded=1;whiteSpace=wrap;html=1;" vertex="1" parent="1">
          <mxGeometry x="354" y="620" width="120" height="60" as="geometry" />
        </mxCell>
        <mxCell id="5DO17vhvd1ubh10Ip06L-20" style="edgeStyle=orthogonalEdgeStyle;curved=1;rounded=0;orthogonalLoop=1;jettySize=auto;html=1;exitX=0.5;exitY=1;exitDx=0;exitDy=0;" edge="1" parent="1" source="5DO17vhvd1ubh10Ip06L-17" target="5DO17vhvd1ubh10Ip06L-19">
          <mxGeometry relative="1" as="geometry" />
        </mxCell>
      </root>
    </mxGraphModel>
  </diagram>
</mxfile>
